PathFileType	4	(X/Y/Z)	57_2_70_p1_0-406_filt_butterworth.trc
DataRate	CameraRate	NumFrames	NumMarkers	Units	OrigDataRate	OrigDataStartFrame	OrigNumFrames
59.0	59.0	5	27	m	59.0	0	406
Frame#	Time	RHip			RKnee			RAnkle			RBigToe			RSmallToe			RHeel			LHip			LKnee			LAnkle			LBigToe			LSmallToe			LHeel			Neck			Head			Nose			RShoulder			RElbow			RWrist			RThumb			RIndex			RPinky			LShoulder			LElbow			LWrist			LThumb			LIndex			LPinky			
		X1	Y1	Z1	X2	Y2	Z2	X3	Y3	Z3	X4	Y4	Z4	X5	Y5	Z5	X6	Y6	Z6	X7	Y7	Z7	X8	Y8	Z8	X9	Y9	Z9	X10	Y10	Z10	X11	Y11	Z11	X12	Y12	Z12	X13	Y13	Z13	X14	Y14	Z14	X15	Y15	Z15	X16	Y16	Z16	X17	Y17	Z17	X18	Y18	Z18	X19	Y19	Z19	X20	Y20	Z20	X21	Y21	Z21	X22	Y22	Z22	X23	Y23	Z23	X24	Y24	Z24	X25	Y25	Z25	X26	Y26	Z26	X27	Y27	Z27	
0	0.0	0.24392789535748843	0.595397923889634	0.8181707121098076	0.22878336199714466	0.2002941603719608	0.7843556850644744	0.23206574799867719	-0.25410661266614787	0.8628697896646035	0.2266712791773884	-0.19654909116222558	0.6201881542317846	0.28371909641310467	-0.22565799354072827	0.6868749222750267	0.239101874440306	-0.33201247908363424	0.9366286440843994	0.031849588333352316	0.5807086472080534	0.8338354630221724	0.05952196772226692	0.17462337062203026	0.8367106566934327	0.07504243303691678	-0.25305943340249926	0.8524014367879293	0.08327681759177138	-0.2076141962705041	0.6385752583220112	0.03282128604548175	-0.2374480383107495	0.6873931183506052	0.09378980873775346	-0.3166708710748981	0.8967369390070812	0.12445442056192689	1.1474776006040497	0.8614527621334164	0.12197990766276277	1.3958128147456557	0.8221340946114022	0.11787315333331043	1.282396465228176	0.7304547387978046	0.2803182984237175	1.0874091143274196	0.8105202798547562	0.3056971545689292	0.8198109220311136	0.7907187999594816	0.17518992110953163	0.6379438136982977	0.6586165810523072	0.12332954630605644	0.5477378062397529	0.6343201427857832	0.12384986644939325	0.5283284040081724	0.6587210745774276	0.13578605458341486	0.5324389362765558	0.6616316577497268	-0.0257613367299078	1.075165441941911	0.8414858952772238	-0.03275417853565018	0.8170645215619601	0.7726044566182164	0.06287971180917598	0.635272597859575	0.6639578673772611	0.14311732612855207	0.552101880423274	0.6491384043303038	0.1400158233021336	0.5403312362226211	0.637378417961987	0.09751576981715067	0.5426618005347756	0.6312575592847165	
1	0.0169491525423728	0.24303802521986917	0.5947445203800844	0.8211937251666628	0.2282343286275008	0.2025282387504695	0.7827777677933991	0.23167106192842973	-0.2558321084292681	0.8649394374246521	0.22506421980581695	-0.19007230364482425	0.6142907120636282	0.2836319967156317	-0.22561363338192683	0.6874679372925523	0.2386981079148179	-0.3324174781410102	0.9384389459004362	0.03072555191064802	0.5800891834559304	0.835037630162651	0.05838858727063672	0.1730512162719012	0.8391142005873032	0.07476132907605103	-0.2531066752315244	0.8523919545864413	0.08290192999627762	-0.20120192790844346	0.6362302196334576	0.029952761323348846	-0.24047842267340588	0.6963821616087064	0.09658614141371744	-0.31941581147113485	0.8991344291615854	0.12443294986249595	1.1474659221457042	0.8614424814841961	0.1222410813868918	1.3942371635735993	0.8227924767181776	0.11792398338612252	1.2824063854869405	0.7305589977619569	0.2803231839712726	1.0874162330997812	0.810481742830973	0.3053934683930651	0.8212624747901904	0.7901389366588218	0.17536784975222405	0.6351741613563129	0.6578434412982748	0.12491380920447423	0.5459735466166102	0.638969549744874	0.12559387753810988	0.5317221119366744	0.6518430308725216	0.13731028134308185	0.5298353124144688	0.6649702563358446	-0.0257358773046258	1.0751527540593944	0.8414318602366506	-0.03274856477011133	0.8162823773595015	0.7727083565567514	0.062419964120986354	0.6351419760105012	0.6639618000606249	0.14257644109238615	0.5521973716433447	0.6494672173407121	0.14020060698009196	0.5367111142427027	0.6448770321658698	0.10103809297068325	0.5386714816817745	0.6377908280487589	
2	0.0338983050847457	0.2423688407143202	0.5944372910833817	0.8233357592777546	0.2278267580129539	0.20410398412938435	0.7817025504350891	0.23141910334138927	-0.2570365643031541	0.8663837187349075	0.22409767603764877	-0.1859616178813443	0.6105768533144447	0.2837344665661723	-0.22566450994563064	0.6877919655793509	0.2384066567596634	-0.3326270127193115	0.9397777467487247	0.029936278297263762	0.5795827211882447	0.8360728275464973	0.05758391322070282	0.17191798203998349	0.8407842234305063	0.07449790524112661	-0.2530699071712391	0.8523595681595982	0.08267907962003579	-0.19788563718183466	0.6353269179261376	0.0282111275814974	-0.24238364744732788	0.7017093945186437	0.09878550533908179	-0.3216241991092691	0.9009237016563957	0.12441538129606315	1.1474601720661135	0.8614338349683561	0.1222995173788065	1.3932714860476214	0.8228383304250373	0.117955206680649	1.2824141931376682	0.7306317126088435	0.28032787707640533	1.087428171895921	0.8104475657910455	0.3051932846765911	0.8223453671944168	0.7897923644087057	0.1758276507243197	0.6334251667241868	0.6579837329548419	0.12644634947103608	0.5445804747614	0.6423865517268466	0.12686825984029376	0.5333519204610531	0.6482939414579743	0.1384613948635813	0.5278168596076089	0.6675885258653402	-0.02572677854601443	1.075144112546735	0.8413796754277303	-0.032695460720520896	0.8153986650780808	0.7728466910720336	0.06220294689921025	0.6351563987803432	0.6637065874965331	0.14243631136063672	0.5519648566536796	0.6495971093699449	0.14076798768098978	0.534167357045422	0.6504591620507228	0.10326110840195765	0.5352014330127697	0.6435962769596015	
3	0.0508474576271186	0.24190040380992456	0.5944333999991763	0.8246907671053784	0.22754883380852015	0.20508528655216793	0.7810851973857462	0.23129344436725355	-0.2577746347899629	0.8672698337564844	0.22363851839271456	-0.1837557775338004	0.6086184961051361	0.2839744995834947	-0.22573894011665901	0.6879120193193277	0.23821740721166768	-0.33265993895483087	0.9406864723966987	0.029451018458272065	0.579180546951982	0.8369563898004613	0.05707612122209868	0.17118083438959045	0.8417940462132562	0.07425282281735156	-0.25296306834729604	0.8523076244412677	0.08256420165201865	-0.19693669141275777	0.6354236724033561	0.02740616656243353	-0.24330634351163918	0.7040139795776716	0.10043702160686664	-0.3233363200448313	0.9021531178492141	0.12440152132403148	1.1474589828379307	0.8614269746495025	0.12222742812851498	1.3927870647388751	0.8225138597021215	0.11797133871025248	1.2824195972035364	0.7306790172797124	0.28033142687840473	1.0874432127091926	0.8104182104143562	0.30512267839160107	0.8231049071003141	0.7897723182589182	0.17646316165207063	0.6324798388578471	0.6590207123197314	0.1278597604133754	0.5435382506917792	0.6447679584639172	0.12773703199763814	0.533636216169953	0.6474020054877976	0.1392758857647092	0.5263876820069031	0.6695680676108792	-0.02573031465323745	1.0751387297750876	0.8413321138026562	-0.03261483686115316	0.8145206136185499	0.772999283253706	0.06220547699974051	0.6352363633583804	0.663394352378	0.14255870791455028	0.5515881609040526	0.649609649692054	0.14156216748419587	0.5325479729220834	0.6544219792663449	0.10446095435368825	0.5322601705411595	0.6487282704904844	
4	0.0677966101694915	0.24161277647576526	0.5946900111271193	0.8253527013118291	0.2273887396692156	0.20553603606228335	0.7808808730415727	0.2312776571357203	-0.2581009743918511	0.8676649826504973	0.22355361739084495	-0.18299352626420828	0.6079875585566037	0.2843000893863671	-0.22576524077983146	0.6878931106963888	0.23812024550765593	-0.3325351129838616	0.9412065486117923	0.02923902335874544	0.5788739472941267	0.8377036515512928	0.05683338692445777	0.1707969397840357	0.8422169899257664	0.07402674308993384	-0.25280009788534863	0.8522394703653173	0.08251323128119893	-0.19762645792329325	0.636078802268418	0.027347660008663347	-0.24338914174546414	0.7039350792830441	0.10158981131009208	-0.32459246033335193	0.902871039097744	0.12439117640780398	1.1474609869338097	0.8614220525912412	0.12209702612602531	1.3926551822185138	0.8220612685195725	0.11797689496829554	1.282422306707721	0.7307070457158109	0.2803328825165598	1.087459637532952	0.8103941383802884	0.30520772451018857	0.8235864023644037	0.7901720332592446	0.177168220161729	0.6321211868132215	0.6609376356906658	0.1290866353391256	0.542826534425405	0.646310579688302	0.12826421265183632	0.5329933856520197	0.6484954221160038	0.13979024466626144	0.5255518837632787	0.6709904828451272	-0.025742759825458632	1.0751358181156068	0.8412919483136218	-0.032526663666282374	0.8137554518817606	0.7731459561914111	0.062404371278469976	0.6353023669338906	0.6632272173980402	0.14280540173537334	0.5512511098442379	0.6495864075810914	0.14242734846907895	0.5317009701639911	0.6570626554625345	0.1049137690685894	0.5298562102803411	0.6532411731146471	
